<?xml version="1.0" encoding="UTF-8" standalone="no"?>
<!-- Created with Inkscape (http://www.inkscape.org/) -->

<svg
   width="400"
   height="400"
   viewBox="0 0 100 100"
   version="1.1"
   id="svg1"
   xml:space="preserve"
   inkscape:version="1.3.2 (091e20ef0f, 2023-11-25, custom)"
   sodipodi:docname="Logo Circle.svg"
   inkscape:export-filename="Logo Circle.png"
   inkscape:export-xdpi="300"
   inkscape:export-ydpi="300"
   xmlns:inkscape="http://www.inkscape.org/namespaces/inkscape"
   xmlns:sodipodi="http://sodipodi.sourceforge.net/DTD/sodipodi-0.dtd"
   xmlns="http://www.w3.org/2000/svg"
   xmlns:svg="http://www.w3.org/2000/svg"><sodipodi:namedview
     id="namedview1"
     pagecolor="#ffffff"
     bordercolor="#666666"
     borderopacity="1.0"
     inkscape:showpageshadow="2"
     inkscape:pageopacity="0.0"
     inkscape:pagecheckerboard="0"
     inkscape:deskcolor="#d1d1d1"
     inkscape:document-units="mm"
     inkscape:zoom="1.0681327"
     inkscape:cx="298.65203"
     inkscape:cy="197.07289"
     inkscape:window-width="2560"
     inkscape:window-height="1376"
     inkscape:window-x="0"
     inkscape:window-y="0"
     inkscape:window-maximized="1"
     inkscape:current-layer="layer1"
     inkscape:export-bgcolor="#ffffff00" /><defs
     id="defs1"><inkscape:path-effect
       effect="fillet_chamfer"
       id="path-effect1"
       is_visible="true"
       lpeversion="1"
       nodesatellites_param="F,0,0,1,0,0,0,1 @ F,0,0,1,0,0,0,1 @ F,0,0,1,0,0,0,1 @ F,0,0,1,0,0,0,1 @ F,0,0,1,0,0,0,1 @ F,0,0,1,0,0,0,1 @ F,0,0,1,0,0,0,1 @ F,0,0,1,0,0,0,1"
       radius="0"
       unit="px"
       method="auto"
       mode="F"
       chamfer_steps="1"
       flexible="false"
       use_knot_distance="true"
       apply_no_radius="true"
       apply_with_radius="true"
       only_selected="false"
       hide_knots="false" /></defs><g
     inkscape:label="Layer 1"
     inkscape:groupmode="layer"
     id="layer1"><circle
       style="fill:#0c5035;stroke-width:0;stroke-linecap:round;stroke-linejoin:round;fill-opacity:1"
       id="path3"
       cx="50"
       cy="50"
       r="50" /><g
       id="g2"
       transform="matrix(1.2412747,0,0,1.2412747,-13.050089,-4.9602599)"
       style="fill:#f0d354;stroke-width:0.366742"><path
         d="M 51,54.92883 70,26.30176 V 24 H 30 v 2.30176 L 49,54.92883 V 76 h -8 v 2 H 59 V 76 H 51 Z M 67.7998,26 50,52.81836 32.2002,26 Z"
         id="path1"
         style="stroke-width:0.366742" /><path
         d="m 69,14 a 10.98436,10.98436 0 0 0 -10.13525,6.71777 l 1.84179,0.7793 A 9.00125,9.00125 0 1 1 69,34 9.4399,9.4399 0 0 1 67.94287,33.93945 l -0.22754,1.98633 A 11.17205,11.17205 0 0 0 69,36 11,11 0 0 0 69,14 Z"
         id="path2"
         style="stroke-width:0.366742" /></g></g></svg>
