<?xml version="1.0" encoding="UTF-8"?>
<svg
   width="91.300003"
   height="116.538"
   viewBox="0 0 64.99602 82.962777"
   version="1.1"
   xmlns="http://www.w3.org/2000/svg"
   xmlns:svg="http://www.w3.org/2000/svg">
  <g
     transform="matrix(1.2962962,0,0,1.2962962,-38.888889,-18.148137)"
     fill="#f0d354">
    <g>
      <path
         d="M 51,54.92883 70,26.30176 V 24 H 30 v 2.30176 L 49,54.92883 V 76 h -8 v 2 H 59 V 76 H 51 Z M 67.7998,26 50,52.81836 32.2002,26 Z" />
      <path
         d="m 69,14 a 10.98436,10.98436 0 0 0 -10.13525,6.71777 l 1.84179,0.7793 A 9.00125,9.00125 0 1 1 69,34 9.4399,9.4399 0 0 1 67.94287,33.93945 l -0.22754,1.98633 A 11.17205,11.17205 0 0 0 69,36 11,11 0 0 0 69,14 Z" />
    </g>
  </g>
</svg>
